<svg width="463" height="354" viewBox="0 0 463 354" fill="none" xmlns="http://www.w3.org/2000/svg">
<path fill-rule="evenodd" clip-rule="evenodd" d="M14.5208 134.308C21.4166 223.552 66.6705 275.17 130.863 315.837H332.137C396.329 275.17 441.583 223.552 448.479 134.308C449.113 125.257 444.068 110.476 427.081 110.476H231.487H35.8926C18.9324 110.477 13.8871 125.257 14.5208 134.308Z" fill="#FA3C5F"/>
<path fill-rule="evenodd" clip-rule="evenodd" d="M128.455 352.523H336.092C340.68 352.523 344.458 348.771 344.458 344.157V324.204C344.458 319.589 340.68 315.837 336.092 315.837H332.137H130.863H128.455C123.841 315.837 120.088 319.589 120.088 324.204V344.157C120.088 348.771 123.841 352.523 128.455 352.523Z" fill="#E0E0E0"/>
<path fill-rule="evenodd" clip-rule="evenodd" d="M388.014 134.308C381.118 223.552 335.864 275.17 271.671 315.837H332.137C396.329 275.17 441.583 223.552 448.479 134.308C449.113 125.257 444.068 110.476 427.081 110.476H366.641C383.602 110.477 388.647 125.257 388.014 134.308Z" fill="#F51841"/>
<path fill-rule="evenodd" clip-rule="evenodd" d="M284.043 352.523H336.092C340.68 352.523 344.458 348.771 344.458 344.157V324.204C344.458 319.589 340.68 315.837 336.092 315.837H332.137H284.043C288.657 315.837 292.435 319.589 292.435 324.204V344.157C292.434 348.771 288.657 352.523 284.043 352.523Z" fill="#C9C7C7"/>
<path d="M447.807 111.723C442.636 106.174 435.468 103.242 427.083 103.242H35.8926C27.521 103.242 20.364 106.174 15.1965 111.716C8.67184 118.714 6.84227 128.237 7.30889 134.868C13.2555 211.818 47.0133 267.756 116.129 314.751C114.106 317.383 112.854 320.635 112.854 324.205V344.156C112.854 352.761 119.852 359.758 128.456 359.758H336.092C344.697 359.758 351.694 352.76 351.694 344.156V324.205C351.694 320.326 350.221 316.82 347.872 314.088C416.326 267.231 449.773 211.452 455.695 134.818C456.158 128.237 454.328 118.718 447.807 111.723ZM337.225 344.156C337.225 344.76 336.696 345.289 336.092 345.289H128.456C127.831 345.289 127.322 344.781 127.322 344.156V324.205C127.322 323.59 127.842 323.071 128.456 323.071H336.091C336.695 323.071 337.225 323.601 337.225 324.205L337.225 344.156ZM329.966 308.602H133.034C60.9872 262.461 27.6324 210.072 21.7386 133.8C21.481 130.151 22.632 124.959 25.7797 121.582C28.2061 118.974 31.5166 117.71 35.8926 117.71H427.082C431.473 117.71 434.79 118.978 437.224 121.588C440.368 124.961 441.52 130.154 441.265 133.751C435.368 210.072 402.013 262.461 329.966 308.602Z" fill="black"/>
</svg>
