<svg width="99" height="99" viewBox="0 0 99 99" fill="none" xmlns="http://www.w3.org/2000/svg">
<path d="M49.8231 87.0504C70.2197 87.0504 86.7544 70.5156 86.7544 50.119C86.7544 29.7224 70.2197 13.1877 49.8231 13.1877C29.4265 13.1877 12.8917 29.7224 12.8917 50.119C12.8917 70.5156 29.4265 87.0504 49.8231 87.0504Z" fill="#FDE497"/>
<path d="M50.0733 98.2809C23.3237 98.2809 1.55896 76.515 1.55896 49.7611C1.55896 23.0082 23.3237 1.24347 50.0733 1.24347C76.8272 1.24347 98.592 23.0082 98.592 49.7611C98.592 76.515 76.8272 98.2809 50.0733 98.2809ZM50.0733 6.71132C26.3372 6.71132 7.02681 26.0239 7.02681 49.7611C7.02681 73.5004 26.3372 92.813 50.0733 92.813C73.8116 92.813 93.1242 73.5004 93.1242 49.7611C93.1253 26.0239 73.8126 6.71132 50.0733 6.71132Z" fill="#454B53"/>
<path d="M66.4627 52.495H50.2245C48.7145 52.495 47.4906 51.2711 47.4906 49.7611V14.5573C47.4906 13.0473 48.7145 11.8234 50.2245 11.8234C51.7345 11.8234 52.9584 13.0473 52.9584 14.5573V47.0283H66.4627C67.9716 47.0283 69.1955 48.2522 69.1955 49.7622C69.1955 51.2722 67.9716 52.495 66.4627 52.495Z" fill="#454B53"/>
<path d="M50.2245 87.6476C48.7145 87.6476 47.4906 86.4237 47.4906 84.9137V77.1014C47.4906 75.5914 48.7145 74.3675 50.2245 74.3675C51.7345 74.3675 52.9584 75.5914 52.9584 77.1014V84.9137C52.9584 86.4237 51.7345 87.6476 50.2245 87.6476Z" fill="#454B53"/>
<path d="M22.5285 52.495H14.8337C13.3247 52.495 12.1008 51.2711 12.1008 49.7611C12.1008 48.2511 13.3247 47.0272 14.8337 47.0272H22.5285C24.0385 47.0272 25.2624 48.2511 25.2624 49.7611C25.2624 51.2711 24.0385 52.495 22.5285 52.495Z" fill="#454B53"/>
<path d="M85.3184 52.495H77.6269C76.1179 52.495 74.894 51.2711 74.894 49.7611C74.894 48.2511 76.1179 47.0272 77.6269 47.0272H85.3184C86.8274 47.0272 88.0512 48.2511 88.0512 49.7611C88.0512 51.2711 86.8274 52.495 85.3184 52.495Z" fill="#454B53"/>
<path d="M29.7772 33.8156C29.1191 33.8156 28.4576 33.5784 27.9343 33.0997L22.2532 27.9071C21.1403 26.8877 21.062 25.1601 22.0814 24.045C23.0996 22.9321 24.8283 22.8538 25.9424 23.8721L31.6234 29.0647C32.7374 30.084 32.8147 31.8116 31.7964 32.9267C31.2557 33.5164 30.5192 33.8156 29.7772 33.8156Z" fill="#454B53"/>
<path d="M76.1266 76.1821C75.4685 76.1821 74.807 75.9449 74.2837 75.4663L68.6026 70.2758C67.4897 69.2575 67.4103 67.5289 68.4297 66.4137C69.449 65.2986 71.1766 65.2214 72.2918 66.2408L77.9717 71.4312C79.0858 72.4495 79.1641 74.1782 78.1458 75.2933C77.6051 75.8829 76.8664 76.1821 76.1266 76.1821Z" fill="#454B53"/>
<path d="M26.3253 78.4123C25.666 78.4123 25.0046 78.1752 24.4802 77.6954C23.3673 76.675 23.29 74.9473 24.3105 73.8333L29.5064 68.1577C30.5268 67.0437 32.2544 66.9686 33.3685 67.9869C34.4814 69.0074 34.5586 70.735 33.5382 71.849L28.3423 77.5246C27.8038 78.1143 27.0662 78.4123 26.3253 78.4123Z" fill="#454B53"/>
<path d="M68.6962 32.0695C68.038 32.0695 67.3777 31.8323 66.8544 31.3536C65.7393 30.3353 65.6609 28.6077 66.6803 27.4926L71.8696 21.8126C72.8879 20.6975 74.6166 20.6203 75.7317 21.6386C76.8468 22.6568 76.9252 24.3844 75.9058 25.4996L70.7143 31.1785C70.1758 31.7692 69.4371 32.0695 68.6962 32.0695Z" fill="#454B53"/>
</svg>
