<svg width="627" height="627" viewBox="0 0 627 627" fill="none" xmlns="http://www.w3.org/2000/svg">
<path d="M373.143 401.672L391.875 284.109V274.312H39.1875V284.109L57.9191 401.672L72.3205 499.641L88.1719 607.406H342.891L373.143 401.672Z" fill="#FF826E"/>
<path d="M382.078 430.72V421.266C382.078 410.44 373.31 401.672 362.484 401.672H303.703L299.157 397.126C276.977 374.946 246.891 362.484 215.531 362.484C184.171 362.484 154.085 374.946 131.905 397.126L127.359 401.672H68.5781C57.7526 401.672 48.9844 410.44 48.9844 421.266V480.047C48.9844 490.872 57.7526 499.641 68.5781 499.641H382.078V430.72Z" fill="#FCD770" fill-opacity="0.86"/>
<path d="M313.5 509.438H587.812V548.625L558.422 607.406H342.891L313.5 548.625V509.438Z" fill="#E6E9ED"/>
<path d="M489.844 470.25H548.625C559.451 470.25 568.219 479.018 568.219 489.844C568.219 500.669 559.451 509.438 548.625 509.438H352.688C341.862 509.438 333.094 500.669 333.094 489.844C333.094 479.018 341.862 470.25 352.688 470.25H411.469H489.844Z" fill="#FFEAA7"/>
<path d="M372.281 470.25C361.456 470.25 352.688 461.482 352.688 450.656C352.688 439.831 361.456 431.062 372.281 431.062H373.937C409.382 431.062 442.221 412.468 460.453 382.078C488.933 382.078 513.454 402.181 519.048 430.112L519.234 431.062H529.031C539.857 431.062 548.625 439.831 548.625 450.656C548.625 461.482 539.857 470.25 529.031 470.25H372.281Z" fill="#FFEAA7"/>
<path d="M313.5 548.625H519.234H538.828H587.812V509.438H313.5V548.625Z" fill="#CCD1D9"/>
<path d="M68.5781 274.312L48.9844 19.5938H88.1719L107.766 274.312H68.5781Z" fill="#FCD770" fill-opacity="0.86"/>
<path d="M176.344 78.375H137.156V274.312H176.344V78.375Z" fill="#FCD770" fill-opacity="0.86"/>
<path d="M293.906 19.5938H254.719V274.312H293.906V19.5938Z" fill="#FCD770" fill-opacity="0.86"/>
<path d="M293.906 117.562V274.312H333.094L348.338 106.678L293.906 117.562Z" fill="#FCD770" fill-opacity="0.86"/>
<path d="M333.094 274.312L352.688 58.7812L391.875 68.5781L372.281 274.312H333.094Z" fill="#FCD770" fill-opacity="0.86"/>
<path d="M176.344 117.562V274.312H225.328L212.269 117.562H176.344Z" fill="#FCD770" fill-opacity="0.86"/>
<path d="M254.719 29.3906V274.312H225.328L205.734 39.1875L254.719 29.3906Z" fill="#FCD770" fill-opacity="0.86"/>
<path d="M576.213 499.641C577.31 496.564 578.016 493.292 578.016 489.844C578.016 476.295 568.758 464.969 556.267 461.59C557.628 458.2 558.422 454.526 558.422 450.656C558.422 434.452 545.235 421.266 529.031 421.266H526.886C517.971 392.492 491.088 372.281 460.453 372.281H454.908L452.057 377.033C438.782 399.154 416.553 414.29 391.679 419.296C391.189 411.988 388.142 405.365 383.264 400.486L401.554 285.647L401.672 264.516H383.058L402.426 61.1129L343.968 46.5058L339.236 98.5076L303.703 105.61V9.79688H244.922V21.3572L195.242 31.2912L201.62 107.766H186.141V68.5781H127.359V153.997L107.962 149.148L97.2438 9.79688H38.4038L57.9975 264.516H29.3906V284.109L47.8088 400.486C42.489 405.816 39.1875 413.164 39.1875 421.266V480.047C39.1875 494.615 49.8661 506.655 63.7875 508.957L79.7074 617.203H336.836H342.891H564.476L597.609 550.937V499.641H576.213ZM465.645 392.149C487.13 394.403 505.127 410.479 509.438 432.032L511.211 440.859H529.031C534.429 440.859 538.828 445.258 538.828 450.656C538.828 456.054 534.429 460.453 529.031 460.453H489.844V480.047H548.625C554.023 480.047 558.422 484.446 558.422 489.844C558.422 495.242 554.023 499.641 548.625 499.641H352.688C347.289 499.641 342.891 495.242 342.891 489.844C342.891 484.446 347.289 480.047 352.688 480.047H411.469V460.453H372.281C366.883 460.453 362.484 456.054 362.484 450.656C362.484 445.258 366.883 440.859 372.281 440.859H373.937C410.597 440.859 445.209 422.333 465.645 392.149ZM381.324 76.0433L363.376 264.516H343.831L361.407 71.0567L381.324 76.0433ZM337.385 118.856L324.149 264.516H303.703V125.596L337.385 118.856ZM284.109 29.3906V264.516H264.516V29.3906H284.109ZM244.922 41.3428V264.516H234.341L216.227 47.0838L244.922 41.3428ZM203.246 127.359L214.679 264.516H186.141V127.359H203.246ZM166.547 88.1719V264.516H146.953V88.1719H166.547ZM127.359 174.198V264.516H116.838L109.549 169.741L127.359 174.198ZM59.565 29.3906H79.1L97.185 264.516H77.65L59.565 29.3906ZM49.1117 284.109H381.961L364.757 392.1C363.993 392.042 363.258 391.875 362.484 391.875H307.759L306.084 390.2C281.895 366.011 249.732 352.688 215.531 352.688C181.33 352.688 149.167 366.011 124.979 390.2L123.303 391.875H68.5781C67.8042 391.875 67.0694 392.042 66.315 392.1L49.1117 284.109ZM58.7812 480.047V421.266C58.7812 415.868 63.18 411.469 68.5781 411.469H131.415L138.832 404.053C159.327 383.567 186.562 372.281 215.531 372.281C244.501 372.281 271.736 383.567 292.231 404.053L299.647 411.469H362.484C367.882 411.469 372.281 415.868 372.281 421.266C356.077 421.266 342.891 434.452 342.891 450.656C342.891 454.526 343.684 458.2 345.046 461.59C332.555 464.969 323.297 476.295 323.297 489.844H68.5781C63.18 489.844 58.7812 485.445 58.7812 480.047ZM96.6364 597.609L83.6653 509.438H303.703V550.937L327.039 597.609H96.6364ZM552.367 597.609H348.945L329.351 558.422H519.234V538.828H323.297V519.234H352.688H548.625H578.016V538.828H538.828V558.422H571.961L552.367 597.609Z" fill="black"/>
</svg>
