<svg width="458" height="569" viewBox="0 0 458 569" fill="none" xmlns="http://www.w3.org/2000/svg">
<g filter="url(#filter0_d_1_191)">
<rect width="450" height="561" rx="25" fill="#E8E2B3"/>
</g>
<rect x="79" y="189" width="293" height="95" rx="20" fill="url(#paint0_linear_1_191)"/>
<path d="M185.526 248.495C183.909 248.495 182.425 248.181 181.073 247.555C179.72 246.928 178.615 246.07 177.758 244.982C176.9 243.86 176.405 242.59 176.273 241.172V231.029C176.405 229.611 176.9 228.324 177.758 227.17C178.615 226.015 179.72 225.108 181.073 224.449C182.425 223.789 183.909 223.459 185.526 223.459C187.802 223.459 189.814 224.003 191.562 225.092C193.343 226.18 194.729 227.665 195.718 229.545C196.741 231.425 197.252 233.569 197.252 235.977C197.252 238.385 196.741 240.529 195.718 242.409C194.729 244.289 193.343 245.773 191.562 246.862C189.814 247.951 187.802 248.495 185.526 248.495ZM184.14 241.667C185.229 241.667 186.169 241.419 186.96 240.925C187.785 240.43 188.428 239.754 188.89 238.896C189.352 238.038 189.583 237.065 189.583 235.977C189.583 234.855 189.352 233.866 188.89 233.008C188.428 232.151 187.785 231.491 186.96 231.029C186.169 230.534 185.245 230.287 184.19 230.287C183.134 230.287 182.194 230.534 181.369 231.029C180.578 231.491 179.951 232.151 179.489 233.008C179.028 233.866 178.797 234.855 178.797 235.977C178.797 237.065 179.011 238.038 179.44 238.896C179.902 239.754 180.545 240.43 181.369 240.925C182.194 241.419 183.118 241.667 184.14 241.667ZM171.672 258.143V223.954H179.242V230.138L178.005 235.977L179.143 241.815V258.143H171.672ZM201.098 248V212.079H208.668V248H201.098ZM224.043 248.495C221.833 248.495 219.854 247.951 218.105 246.862C216.39 245.773 215.021 244.289 213.999 242.409C213.009 240.529 212.514 238.385 212.514 235.977C212.514 233.569 213.009 231.425 213.999 229.545C215.021 227.665 216.39 226.18 218.105 225.092C219.854 224.003 221.833 223.459 224.043 223.459C225.659 223.459 227.11 223.772 228.397 224.399C229.716 225.026 230.788 225.9 231.613 227.021C232.437 228.11 232.899 229.363 232.998 230.782V241.172C232.899 242.59 232.437 243.86 231.613 244.982C230.821 246.07 229.766 246.928 228.446 247.555C227.127 248.181 225.659 248.495 224.043 248.495ZM225.576 241.667C227.193 241.667 228.496 241.139 229.485 240.084C230.475 238.995 230.97 237.626 230.97 235.977C230.97 234.855 230.739 233.866 230.277 233.008C229.848 232.151 229.221 231.491 228.397 231.029C227.605 230.534 226.681 230.287 225.626 230.287C224.57 230.287 223.63 230.534 222.806 231.029C222.014 231.491 221.371 232.151 220.876 233.008C220.414 233.866 220.183 234.855 220.183 235.977C220.183 237.065 220.414 238.038 220.876 238.896C221.338 239.754 221.981 240.43 222.806 240.925C223.63 241.419 224.554 241.667 225.576 241.667ZM230.673 248V241.518L231.811 235.68L230.673 229.842V223.954H238.094V248H230.673ZM250.846 248.099L240.951 223.954H249.114L255.398 243.102H252.38L258.812 223.954H266.976L256.685 248.099H250.846ZM244.661 258.143L251.885 242.557L256.685 248.099L252.429 258.143H244.661ZM271.339 235.235L270.102 212.079H278.266L277.029 235.235H271.339ZM274.159 248.544C272.873 248.544 271.801 248.099 270.943 247.208C270.085 246.318 269.657 245.246 269.657 243.992C269.657 242.673 270.085 241.584 270.943 240.727C271.801 239.836 272.873 239.391 274.159 239.391C275.479 239.391 276.551 239.836 277.375 240.727C278.233 241.584 278.662 242.673 278.662 243.992C278.662 245.246 278.233 246.318 277.375 247.208C276.551 248.099 275.479 248.544 274.159 248.544Z" fill="white"/>
<rect x="78" y="376" width="293" height="95" rx="20" fill="url(#paint1_linear_1_191)"/>
<path d="M179.429 435.594C178.011 435.594 176.609 435.412 175.224 435.049C173.871 434.687 172.601 434.175 171.414 433.516C170.259 432.823 169.27 432.031 168.445 431.141L172.75 426.787C173.542 427.644 174.482 428.32 175.57 428.815C176.659 429.277 177.846 429.508 179.133 429.508C180.023 429.508 180.699 429.376 181.161 429.112C181.656 428.848 181.903 428.485 181.903 428.024C181.903 427.43 181.606 426.985 181.013 426.688C180.452 426.358 179.726 426.077 178.836 425.847C177.945 425.583 177.005 425.302 176.015 425.005C175.026 424.709 174.086 424.296 173.195 423.769C172.305 423.241 171.579 422.515 171.018 421.591C170.457 420.635 170.177 419.431 170.177 417.98C170.177 416.429 170.573 415.093 171.364 413.972C172.156 412.817 173.278 411.91 174.729 411.251C176.18 410.591 177.879 410.261 179.825 410.261C181.87 410.261 183.75 410.624 185.466 411.35C187.214 412.042 188.632 413.081 189.721 414.467L185.416 418.821C184.658 417.93 183.8 417.303 182.843 416.941C181.92 416.578 181.013 416.396 180.122 416.396C179.264 416.396 178.621 416.528 178.192 416.792C177.764 417.023 177.549 417.369 177.549 417.831C177.549 418.326 177.83 418.722 178.39 419.019C178.951 419.316 179.677 419.579 180.567 419.81C181.458 420.041 182.398 420.322 183.388 420.651C184.377 420.981 185.317 421.427 186.208 421.987C187.098 422.548 187.824 423.307 188.385 424.263C188.946 425.187 189.226 426.407 189.226 427.925C189.226 430.267 188.335 432.13 186.554 433.516C184.806 434.901 182.431 435.594 179.429 435.594ZM196.747 435V401.009H204.317V435H196.747ZM191.304 417.386V410.954H209.76V417.386H191.304ZM224.19 435.544C221.716 435.544 219.473 435 217.461 433.911C215.482 432.79 213.915 431.273 212.761 429.36C211.606 427.446 211.029 425.302 211.029 422.927C211.029 420.552 211.606 418.425 212.761 416.545C213.915 414.665 215.482 413.18 217.461 412.092C219.44 410.97 221.683 410.409 224.19 410.409C226.697 410.409 228.94 410.954 230.919 412.042C232.898 413.131 234.465 414.632 235.619 416.545C236.774 418.425 237.351 420.552 237.351 422.927C237.351 425.302 236.774 427.446 235.619 429.36C234.465 431.273 232.898 432.79 230.919 433.911C228.94 435 226.697 435.544 224.19 435.544ZM224.19 428.667C225.278 428.667 226.235 428.436 227.06 427.974C227.884 427.479 228.511 426.803 228.94 425.946C229.402 425.055 229.632 424.049 229.632 422.927C229.632 421.806 229.402 420.833 228.94 420.008C228.478 419.151 227.835 418.491 227.01 418.029C226.218 417.534 225.278 417.287 224.19 417.287C223.134 417.287 222.194 417.534 221.37 418.029C220.545 418.491 219.902 419.151 219.44 420.008C218.978 420.866 218.747 421.855 218.747 422.977C218.747 424.065 218.978 425.055 219.44 425.946C219.902 426.803 220.545 427.479 221.37 427.974C222.194 428.436 223.134 428.667 224.19 428.667ZM254.974 435.495C253.357 435.495 251.873 435.181 250.521 434.555C249.168 433.928 248.063 433.07 247.206 431.982C246.348 430.86 245.853 429.59 245.721 428.172V418.029C245.853 416.611 246.348 415.324 247.206 414.17C248.063 413.015 249.168 412.108 250.521 411.449C251.873 410.789 253.357 410.459 254.974 410.459C257.25 410.459 259.262 411.003 261.01 412.092C262.791 413.18 264.177 414.665 265.166 416.545C266.189 418.425 266.7 420.569 266.7 422.977C266.7 425.385 266.189 427.529 265.166 429.409C264.177 431.289 262.791 432.773 261.01 433.862C259.262 434.951 257.25 435.495 254.974 435.495ZM253.588 428.667C254.677 428.667 255.617 428.419 256.409 427.925C257.233 427.43 257.876 426.754 258.338 425.896C258.8 425.038 259.031 424.065 259.031 422.977C259.031 421.855 258.8 420.866 258.338 420.008C257.876 419.151 257.233 418.491 256.409 418.029C255.617 417.534 254.693 417.287 253.638 417.287C252.582 417.287 251.642 417.534 250.818 418.029C250.026 418.491 249.399 419.151 248.937 420.008C248.476 420.866 248.245 421.855 248.245 422.977C248.245 424.065 248.459 425.038 248.888 425.896C249.35 426.754 249.993 427.43 250.818 427.925C251.642 428.419 252.566 428.667 253.588 428.667ZM241.12 445.143V410.954H248.69V417.138L247.453 422.977L248.591 428.815V445.143H241.12ZM272.03 422.235L270.793 399.079H278.957L277.72 422.235H272.03ZM274.85 435.544C273.564 435.544 272.492 435.099 271.634 434.208C270.777 433.318 270.348 432.246 270.348 430.992C270.348 429.673 270.777 428.584 271.634 427.727C272.492 426.836 273.564 426.391 274.85 426.391C276.17 426.391 277.242 426.836 278.066 427.727C278.924 428.584 279.353 429.673 279.353 430.992C279.353 432.246 278.924 433.318 278.066 434.208C277.242 435.099 276.17 435.544 274.85 435.544Z" fill="white"/>
<path d="M108.913 131.786V86.8157H116.786V89.1776C118.549 87.0992 120.911 86.0599 123.871 86.0599C126.621 86.0599 128.994 86.7423 130.988 88.1069C132.983 89.4505 134.515 91.382 135.586 93.9013C136.657 96.4206 137.192 99.4228 137.192 102.908C137.192 106.288 136.636 109.248 135.523 111.788C134.41 114.308 132.846 116.271 130.831 117.677C128.815 119.063 126.464 119.756 123.777 119.756C122.307 119.756 120.984 119.493 119.809 118.969C118.633 118.423 117.625 117.625 116.786 116.575V128.227L108.913 131.786ZM122.611 112.229C124.753 112.229 126.401 111.421 127.556 109.804C128.71 108.167 129.288 105.868 129.288 102.908C129.288 99.9477 128.7 97.6488 127.524 96.0112C126.348 94.3737 124.711 93.5549 122.611 93.5549C121.331 93.5549 120.208 93.7858 119.242 94.2477C118.297 94.7096 117.478 95.4129 116.786 96.3576V109.364C117.352 110.266 118.15 110.97 119.179 111.474C120.229 111.977 121.373 112.229 122.611 112.229ZM158.668 119.756C154.133 119.756 150.554 118.255 147.93 115.253C145.305 112.25 143.993 108.146 143.993 102.939C143.993 99.4963 144.591 96.5151 145.788 93.9958C146.985 91.4555 148.675 89.503 150.858 88.1384C153.063 86.7528 155.666 86.0599 158.668 86.0599C161.649 86.0599 164.232 86.7423 166.415 88.1069C168.598 89.4715 170.278 91.4135 171.454 93.9328C172.629 96.4521 173.217 99.4438 173.217 102.908C173.217 106.393 172.629 109.395 171.454 111.914C170.299 114.434 168.63 116.376 166.447 117.74C164.263 119.084 161.67 119.756 158.668 119.756ZM158.668 112.229C160.789 112.229 162.437 111.411 163.612 109.773C164.788 108.135 165.376 105.847 165.376 102.908C165.376 99.9687 164.778 97.6803 163.581 96.0427C162.405 94.3842 160.768 93.5549 158.668 93.5549C156.548 93.5549 154.889 94.3842 153.693 96.0427C152.496 97.7013 151.898 100 151.898 102.939C151.898 105.837 152.496 108.114 153.693 109.773C154.889 111.411 156.548 112.229 158.668 112.229ZM181.431 119V86.8157H189.303V119H181.431ZM185.367 82.7848C184.107 82.7848 183.016 82.3335 182.092 81.4307C181.189 80.5069 180.738 79.4152 180.738 78.1556C180.738 76.8959 181.189 75.8252 182.092 74.9435C182.995 74.0407 184.086 73.5893 185.367 73.5893C186.69 73.5893 187.792 74.0302 188.674 74.912C189.555 75.7937 189.996 76.8749 189.996 78.1556C189.996 79.4362 189.545 80.5279 188.642 81.4307C187.76 82.3335 186.669 82.7848 185.367 82.7848ZM199.205 119V86.8157H207.077V89.9019C208.106 88.6212 209.334 87.666 210.762 87.0362C212.211 86.3854 213.859 86.0599 215.706 86.0599C219.296 86.0599 222.067 87.1726 224.02 89.398C225.972 91.6024 226.949 94.7831 226.949 98.9399V119H219.107V101.365C219.107 98.6565 218.635 96.6831 217.69 95.4444C216.766 94.1847 215.318 93.5549 213.344 93.5549C211.203 93.5549 209.618 94.1847 208.589 95.4444C207.581 96.6831 207.077 98.6145 207.077 101.239V119H199.205ZM244.939 119.756C242.378 119.756 240.457 119.052 239.177 117.646C237.896 116.239 237.256 114.14 237.256 111.348V93.7124H232.563V86.8157H237.256V77.2738L245.065 73.5263V86.8157H252.371V93.7124H245.065V109.93C245.065 110.938 245.265 111.683 245.664 112.166C246.084 112.649 246.735 112.891 247.616 112.891C249.17 112.891 250.87 112.408 252.718 111.442L251.805 118.307C250.839 118.79 249.789 119.147 248.655 119.378C247.522 119.63 246.283 119.756 244.939 119.756ZM278.735 98.5935C277.265 98.5935 276.037 98.1107 275.05 97.1449C274.064 96.1582 273.57 94.9405 273.57 93.4919C273.57 92.1063 274.064 90.9096 275.05 89.9019C276.037 88.8732 277.265 88.3588 278.735 88.3588C280.204 88.3588 281.443 88.8732 282.451 89.9019C283.458 90.9096 283.962 92.1063 283.962 93.4919C283.962 94.9405 283.458 96.1582 282.451 97.1449C281.443 98.1107 280.204 98.5935 278.735 98.5935ZM278.735 119.787C277.265 119.787 276.037 119.304 275.05 118.339C274.064 117.352 273.57 116.145 273.57 114.717C273.57 113.311 274.064 112.103 275.05 111.096C276.037 110.067 277.265 109.553 278.735 109.553C280.204 109.553 281.443 110.067 282.451 111.096C283.458 112.103 283.962 113.311 283.962 114.717C283.962 116.145 283.458 117.352 282.451 118.339C281.443 119.304 280.204 119.787 278.735 119.787Z" fill="black"/>
<path d="M324.872 125.761C321.7 125.761 319.067 125.095 316.974 123.763C314.88 122.41 313.22 120.612 311.993 118.37C310.767 116.129 309.889 113.655 309.361 110.948C308.853 108.241 308.599 105.524 308.599 102.796C308.599 100.639 308.758 98.4713 309.075 96.2932C309.392 94.0939 309.911 92.011 310.63 90.0443C311.37 88.0777 312.364 86.3331 313.611 84.8105C314.859 83.2668 316.403 82.0508 318.242 81.1627C320.103 80.2745 322.313 79.8304 324.872 79.8304C328.023 79.8304 330.645 80.4966 332.739 81.8288C334.853 83.1611 336.513 84.9374 337.719 87.1578C338.945 89.3782 339.812 91.8524 340.32 94.5803C340.848 97.2871 341.113 100.026 341.113 102.796C341.113 104.953 340.954 107.12 340.637 109.298C340.32 111.477 339.791 113.549 339.051 115.516C338.311 117.482 337.317 119.237 336.069 120.781C334.821 122.325 333.278 123.541 331.438 124.429C329.598 125.317 327.41 125.761 324.872 125.761ZM324.872 118.022C326.437 118.022 327.727 117.588 328.742 116.721C329.778 115.833 330.592 114.659 331.184 113.2C331.797 111.741 332.231 110.113 332.485 108.315C332.739 106.518 332.865 104.678 332.865 102.796C332.865 100.893 332.728 99.0423 332.453 97.2448C332.199 95.4473 331.776 93.819 331.184 92.3599C330.592 90.8796 329.778 89.7166 328.742 88.8707C327.727 88.0037 326.437 87.5702 324.872 87.5702C323.286 87.5702 321.975 88.0037 320.939 88.8707C319.902 89.7377 319.078 90.9114 318.464 92.3916C317.851 93.8508 317.418 95.4791 317.164 97.2765C316.91 99.074 316.783 100.914 316.783 102.796C316.783 104.678 316.91 106.528 317.164 108.347C317.418 110.144 317.851 111.773 318.464 113.232C319.078 114.691 319.902 115.854 320.939 116.721C321.996 117.588 323.307 118.022 324.872 118.022Z" fill="black"/>
<defs>
<filter id="filter0_d_1_191" x="0" y="0" width="458" height="569" filterUnits="userSpaceOnUse" color-interpolation-filters="sRGB">
<feFlood flood-opacity="0" result="BackgroundImageFix"/>
<feColorMatrix in="SourceAlpha" type="matrix" values="0 0 0 0 0 0 0 0 0 0 0 0 0 0 0 0 0 0 127 0" result="hardAlpha"/>
<feOffset dx="4" dy="4"/>
<feGaussianBlur stdDeviation="2"/>
<feComposite in2="hardAlpha" operator="out"/>
<feColorMatrix type="matrix" values="0 0 0 0 0 0 0 0 0 0 0 0 0 0 0 0 0 0 0.25 0"/>
<feBlend mode="normal" in2="BackgroundImageFix" result="effect1_dropShadow_1_191"/>
<feBlend mode="normal" in="SourceGraphic" in2="effect1_dropShadow_1_191" result="shape"/>
</filter>
<linearGradient id="paint0_linear_1_191" x1="225.5" y1="189" x2="225" y2="339" gradientUnits="userSpaceOnUse">
<stop stop-color="#E33434"/>
<stop offset="1" stop-color="#350000"/>
</linearGradient>
<linearGradient id="paint1_linear_1_191" x1="224.5" y1="376" x2="224" y2="526" gradientUnits="userSpaceOnUse">
<stop stop-color="#347AE3"/>
<stop offset="1" stop-color="#350000"/>
</linearGradient>
</defs>
</svg>
