<svg width="91" height="91" viewBox="0 0 91 91" fill="none" xmlns="http://www.w3.org/2000/svg">
<g clip-path="url(#clip0_1_139)">
<path d="M27.264 66.67C22.721 66.67 19.024 70.367 19.024 74.908C19.024 79.453 22.721 83.15 27.264 83.15C31.809 83.15 35.504 79.453 35.504 74.908C35.504 70.367 31.81 66.67 27.264 66.67Z" fill="#F5723E"/>
<path d="M38.892 3.638L35.159 12.516C46.378 14.812 69.922 23.491 78.326 55.896L87.277 52.132C78.984 8.063 43.771 3.989 38.892 3.638Z" fill="#DABE92"/>
<path d="M34.503 14.076L3.722 87.27L19.264 80.735C18.069 79.096 17.354 77.089 17.354 74.909C17.354 69.444 21.8 65.001 27.264 65.001C32.169 65.001 36.24 68.583 37.027 73.267L76.772 56.552C68.544 24.458 45.198 16.184 34.503 14.076Z" fill="#FAE58F"/>
<path d="M77.011 62.439C68.586 15.731 29.71 14.432 29.317 14.424L29.406 9.914C29.847 9.922 40.357 10.2 52.075 16.734C62.865 22.752 76.721 35.425 81.45 61.641L77.011 62.439Z" fill="#1A1A1B"/>
<path d="M45.497 55.225L53.72 40.982L61.941 55.225H45.497Z" fill="#B4EF44"/>
<path d="M61.941 57.479H45.497C44.691 57.479 43.948 57.049 43.545 56.35C43.141 55.653 43.141 54.793 43.545 54.096L51.767 39.856C52.168 39.157 52.913 38.728 53.719 38.728C54.525 38.728 55.269 39.157 55.672 39.856L63.893 54.096C64.297 54.793 64.297 55.653 63.893 56.35C63.491 57.049 62.748 57.479 61.941 57.479ZM49.405 52.967H58.035L53.72 45.495L49.405 52.967Z" fill="#1A1A1B"/>
<path d="M27.577 85.893C21.328 85.893 16.247 80.807 16.247 74.559C16.247 68.313 21.328 63.231 27.577 63.231C33.824 63.231 38.907 68.313 38.907 74.559C38.907 80.807 33.824 85.893 27.577 85.893ZM27.577 67.74C23.816 67.74 20.757 70.801 20.757 74.558C20.757 78.32 23.816 81.38 27.577 81.38C31.337 81.38 34.397 78.319 34.397 74.558C34.397 70.801 31.337 67.74 27.577 67.74Z" fill="#1A1A1B"/>
<path d="M45.497 32.68C45.497 35.122 43.52 37.103 41.079 37.103C38.634 37.103 36.652 35.122 36.652 32.68C36.652 30.239 38.633 28.259 41.079 28.259C43.52 28.259 45.497 30.239 45.497 32.68Z" fill="#F5723E"/>
<path d="M41.079 39.358C37.394 39.358 34.397 36.363 34.397 32.68C34.397 28.999 37.394 26.002 41.079 26.002C44.76 26.002 47.752 28.999 47.752 32.68C47.752 36.363 44.759 39.358 41.079 39.358ZM41.079 30.515C39.881 30.515 38.908 31.486 38.908 32.681C38.908 33.876 39.881 34.847 41.079 34.847C42.272 34.847 43.243 33.876 43.243 32.681C43.243 31.486 42.271 30.515 41.079 30.515Z" fill="#1A1A1B"/>
<path d="M27.882 53.205C25.854 53.205 24.205 51.555 24.205 49.525C24.205 47.494 25.854 45.844 27.882 45.844C29.91 45.844 31.559 47.494 31.559 49.525C31.559 51.555 29.91 53.205 27.882 53.205ZM27.882 48.693C27.422 48.693 27.049 49.066 27.049 49.525C27.049 49.982 27.422 50.353 27.882 50.353C28.342 50.353 28.715 49.982 28.715 49.525C28.715 49.066 28.342 48.693 27.882 48.693Z" fill="#1A1A1B"/>
<path d="M2.469 90.74C1.883 90.74 1.306 90.511 0.874998 90.08C0.225998 89.432 0.0339976 88.457 0.388998 87.611L36.582 1.547C36.936 0.71 37.755 0.166 38.662 0.166C38.676 0.166 38.691 0.166 38.707 0.166C39.148 0.176 49.658 0.454 61.376 6.988C72.166 13.006 86.022 25.68 90.751 51.892C90.938 52.931 90.378 53.96 89.405 54.371L37.502 76.199L35.754 72.041L85.972 50.922C77.93 11.081 47.265 5.541 40.111 4.792L6.692 84.264L20.056 78.643L21.804 82.803L3.344 90.565C3.062 90.682 2.765 90.74 2.469 90.74Z" fill="#1A1A1B"/>
</g>
<defs>
<clipPath id="clip0_1_139">
<rect width="91" height="91" fill="white"/>
</clipPath>
</defs>
</svg>
